<svg width="800" height="800" viewBox="0 0 800 800" fill="none" xmlns="http://www.w3.org/2000/svg">
<path d="M630.425 560.05H575.95C555.325 560.05 548.95 543.65 511.9 506.1C479.625 474.85 465.35 470.65 457.425 470.65C446.3 470.65 443.125 473.825 443.125 489.175V538.375C443.125 551.625 438.9 559.55 403.975 559.55C333.525 554.825 272.975 516.4 237.825 460.4L237.3 459.525C196.5 408.85 166.425 347.775 151.55 280.975L151 278.05C151 270.125 154.175 262.7 169.525 262.7H224C237.75 262.7 243.05 269.05 248.375 283.85C275.325 361.65 320.325 429.9 338.85 429.9C345.725 429.9 348.9 426.725 348.9 409.275V328.8C346.775 291.75 327.2 288.6 327.2 275.375C327.425 268.3 333.225 262.65 340.325 262.65C340.55 262.65 340.75 262.65 340.975 262.675H340.95H426.675C438.325 262.675 442.55 269.025 442.55 282.775V391.275C442.55 402.9 447.85 407.15 451.025 407.15C457.9 407.15 463.75 402.9 476.425 390.225C502.775 358.05 525.3 321.25 542.475 281.575L543.625 278.575C547.25 269.5 555.95 263.2 566.125 263.2C566.577 263.2 567.007 263.222 567.457 263.246C567.48 263.247 567.502 263.248 567.525 263.25H567.45H621.925C638.325 263.25 642.05 271.675 638.325 283.35C616.726 330.923 592.487 371.876 564.452 409.806C564.127 410.246 563.801 410.686 563.475 411.125L564.775 409.275C564.666 409.454 564.558 409.631 564.452 409.806C558.899 418.961 556.999 423.224 564.775 433.65C570.575 441.575 589.65 457.975 602.35 472.8C620.725 490.975 636.125 512.125 647.75 535.475L648.375 536.85C653.675 552.15 645.725 560.1 630.375 560.1L630.425 560.05ZM515.1 25.0996H284.925C74.85 25.0996 25.125 74.8246 25.125 284.9V515.075C25.125 725.15 74.85 774.875 284.925 774.875H515.1C725.175 774.875 774.9 725.15 774.9 515.075V284.9C774.9 74.8246 724.625 25.0996 515.1 25.0996Z" fill="#0077FF"/>
<path d="M575.95 560.05H630.425L630.375 560.1C645.725 560.1 653.675 552.15 648.375 536.85L647.75 535.475C636.125 512.125 620.725 490.975 602.35 472.8C589.65 457.975 570.575 441.575 564.775 433.65C556.999 423.224 558.899 418.961 564.452 409.806C564.127 410.246 563.801 410.686 563.475 411.125L564.775 409.275C564.666 409.454 564.558 409.631 564.452 409.806C592.487 371.876 616.726 330.923 638.325 283.35C642.05 271.675 638.325 263.25 621.925 263.25H567.525L567.457 263.246C567.007 263.222 566.577 263.2 566.125 263.2C555.95 263.2 547.25 269.5 543.625 278.575L542.475 281.575C525.3 321.25 502.775 358.05 476.425 390.225C463.75 402.9 457.9 407.15 451.025 407.15C447.85 407.15 442.55 402.9 442.55 391.275V282.775C442.55 269.025 438.325 262.675 426.675 262.675H340.975C340.75 262.65 340.55 262.65 340.325 262.65C333.225 262.65 327.425 268.3 327.2 275.375C327.2 288.6 346.775 291.75 348.9 328.8V409.275C348.9 426.725 345.725 429.9 338.85 429.9C320.325 429.9 275.325 361.65 248.375 283.85C243.05 269.05 237.75 262.7 224 262.7H169.525C154.175 262.7 151 270.125 151 278.05L151.55 280.975C166.425 347.775 196.5 408.85 237.3 459.525L237.825 460.4C272.975 516.4 333.525 554.825 403.975 559.55C438.9 559.55 443.125 551.625 443.125 538.375V489.175C443.125 473.825 446.3 470.65 457.425 470.65C465.35 470.65 479.625 474.85 511.9 506.1C548.95 543.65 555.325 560.05 575.95 560.05Z" fill="white"/>
</svg>
