<svg width="3667" height="800" viewBox="0 0 3667 800" fill="none" xmlns="http://www.w3.org/2000/svg">
<g clip-path="url(#clip0_288_112)">
<mask id="mask0_288_112" style="mask-type:luminance" maskUnits="userSpaceOnUse" x="0" y="3" width="3667" height="794">
<path d="M0 3.60352H3666.67V796.396H0V3.60352Z" fill="white"/>
</mask>
<g mask="url(#mask0_288_112)">
<mask id="mask1_288_112" style="mask-type:luminance" maskUnits="userSpaceOnUse" x="0" y="3" width="793" height="794">
<path d="M0 3.60352H792.793V796.396H0V3.60352Z" fill="white"/>
</mask>
<g mask="url(#mask1_288_112)">
<path d="M0 293.303C0 54.8047 51.2012 3.60352 289.7 3.60352H503.093C741.592 3.60352 792.793 54.8047 792.793 293.303V506.697C792.793 745.195 741.592 796.396 503.093 796.396H289.7C51.2012 796.396 0 745.195 0 506.697V293.303Z" fill="#0077FF"/>
<path d="M426.125 796.396H501.44C735.975 796.396 790.149 747.507 792.792 522.883V275.796C790.149 52.1621 735.314 3.60352 501.44 3.60352H426.125C186.305 3.60352 134.773 54.8047 134.773 293.303V506.697C134.773 745.195 186.305 796.396 426.125 796.396Z" fill="#FF2B42"/>
<path d="M559.251 331.291C599.552 354.414 619.371 365.976 626.308 381.171C632.254 394.384 632.254 409.579 626.308 422.462C619.702 437.657 599.552 449.219 559.251 472.342L449.582 535.765C409.612 558.889 389.461 570.45 372.945 568.798C365.874 568.017 359.045 565.761 352.9 562.176C346.755 558.592 341.43 553.758 337.269 547.988C327.359 534.774 327.359 511.651 327.359 465.405V338.558C327.359 292.312 327.359 269.189 337.269 255.976C341.398 250.144 346.708 245.247 352.855 241.605C359.002 237.962 365.847 235.655 372.945 234.834C389.461 232.852 409.281 244.744 449.582 267.867L559.251 330.961V331.291Z" fill="white"/>
</g>
<path d="M1197.78 600.179H1296.87L1441.56 201.801H1369.55L1253.27 530.149H1242.04L1130.06 201.801H1057.05L1197.78 600.179ZM1813.18 600.179L1630.18 394.053L1798.98 201.801H1715.4L1574.02 363.663H1557.51V201.801H1489.79V600.179H1557.84V429.398H1574.68L1723.66 600.179H1812.85H1813.18ZM2201.98 395.374C2219.23 388.947 2234.03 377.262 2244.29 361.97C2254.54 346.678 2259.73 328.551 2259.13 310.149C2259.13 247.056 2206.6 201.801 2129.64 201.801H1974.38V600.179H2140.87C2218.5 600.179 2271.02 554.924 2271.02 488.858C2271.85 467.787 2265.46 447.062 2252.91 430.12C2240.35 413.178 2222.38 401.035 2201.98 395.705V395.374ZM2042.1 261.26H2129.64C2165.97 261.26 2190.75 283.062 2190.75 316.095C2190.75 348.137 2165.97 370.269 2129.64 370.269H2042.1V261.26ZM2141.2 540.72H2042.1V429.729H2141.2C2176.54 429.729 2201.65 452.522 2201.65 485.224C2201.65 518.257 2176.54 541.38 2140.87 541.38L2141.2 540.72ZM2332.79 600.179H2424.95L2534.62 382.161H2543.54V600.179H2605.64V306.185H2513.81L2404.47 524.203H2395.22V306.185H2333.12V600.179H2332.79ZM2648.26 687.717H2713.33V600.179H2924.74V687.717H2989.49V540.72H2938.62V306.185H2723.24L2708.71 456.485C2703.75 509.669 2687.9 540.72 2655.85 540.72H2648.26V687.717ZM2747.36 540.72C2762.88 525.525 2769.82 499.428 2774.11 455.495L2783.36 365.645H2873.54V540.72H2747.02H2747.36ZM3317.17 449.879C3317.6 429.873 3313.92 409.993 3306.36 391.467C3298.79 372.941 3287.51 356.162 3273.21 342.169C3258.91 328.175 3241.88 317.263 3223.2 310.108C3204.51 302.953 3184.55 299.707 3164.56 300.57C3144.34 299.827 3124.18 303.268 3105.34 310.679C3086.51 318.09 3069.41 329.311 3055.11 343.638C3040.81 357.965 3029.63 375.089 3022.26 393.939C3014.89 412.789 3011.49 432.958 3012.28 453.182C3011.49 473.435 3014.9 493.633 3022.29 512.506C3029.68 531.379 3040.89 548.52 3055.22 562.852C3069.55 577.184 3086.7 588.397 3105.57 595.787C3124.44 603.177 3144.64 606.584 3164.89 605.795C3225.67 605.795 3283.48 577.056 3305.28 520.9L3244.5 510.99C3235.7 522.654 3224.17 531.978 3210.92 538.141C3197.68 544.304 3183.12 547.118 3168.53 546.335C3118.98 546.335 3085.94 515.945 3080 470.69H3316.18C3316.84 464.413 3317.17 457.476 3317.17 449.879ZM3164.56 357.386C3205.52 357.386 3235.91 383.152 3246.81 420.149H3083.96C3088.37 402.078 3098.77 386.034 3113.47 374.635C3128.17 363.236 3146.29 357.156 3164.89 357.386H3164.56ZM3508.11 605.795C3599.94 605.795 3665.01 542.371 3665.01 453.182C3665.01 363.993 3599.94 300.9 3508.11 300.9C3415.94 300.9 3350.87 364.323 3350.87 453.513C3350.87 542.702 3415.94 606.125 3508.11 606.125V605.795ZM3508.11 546.335C3454.92 546.335 3418.92 508.678 3418.92 453.182C3418.92 398.017 3454.92 360.029 3508.11 360.029C3560.96 360.029 3597.3 398.017 3597.3 453.182C3597.3 508.678 3560.96 546.335 3508.11 546.335Z" fill="white"/>
</g>
</g>
<defs>
<clipPath id="clip0_288_112">
<rect width="3666.67" height="800" fill="white"/>
</clipPath>
</defs>
</svg>
